# xmcd
#
# Track frame offsets:
# 150
# 13032
# 29025
# 42537
# 51382
# 67547
# 80612
# 97732
# 110047
# 123875
# 138197
# 155997
# 172375
# 184372
#
# Disc length: 2667 seconds
#
#
# Revision: 1
# Processed by: cddbd v1.5.2PL0 Copyright (c) Steve Scherf et al.
# Submitted via: FreeRIP 2.95 
#
DISCID=c80a690e
DTITLE=Zilo e Zalo - Luar do Sertão
DYEAR=1956
DGENRE=Country
TTITLE0=A volta do Seresteiro
TTITLE1=O Milagre do Ladrão
TTITLE2=Mineiro de Monte Belo
TTITLE3=Falta de Sorte
TTITLE4=Boiadeiro Errante
TTITLE5=Eterna Companheira
TTITLE6=A Vida de São Sebastião
TTITLE7=Briguei com ela
TTITLE8=Justiça de um filho
TTITLE9=Paraguaia da Fronteira
TTITLE10=O Milagre de São Gonçalo
TTITLE11=Poente da Vida
TTITLE12=O Maior Castigo
TTITLE13=Caminhoneiro
EXTD=
EXTT0=
EXTT1=
EXTT2=
EXTT3=
EXTT4=
EXTT5=
EXTT6=
EXTT7=
EXTT8=
EXTT9=
EXTT10=
EXTT11=
EXTT12=
EXTT13=
PLAYORDER=
